#tb 0: 1/25
#media_type 0: video
#codec_id 0: rawvideo
#dimensions 0: 320x240
#sar 0: 1/1
#tb 1: 1/44100
#media_type 1: audio
#codec_id 1: pcm_s16le
#sample_rate 1: 44100
#channel_layout_name 1: mono
0,          0,          0,        1,   230400, 0x88c4d19a
1,          0,          0,     1024,     2048, 0x2096f45b
1,       1024,       1024,     1024,     2048, 0x2262f6ec
0,          1,          1,        1,   230400, 0xc4740ad1
1,       2048,       2048,     1024,     2048, 0xaa83fe05
1,       3072,       3072,     1024,     2048, 0x487e06b5
0,          2,          2,        1,   230400, 0xb6dd3deb
1,       4096,       4096,      314,      628, 0x135c404b
1,       4410,       4410,     4096,     8192, 0x00000000
0,          3,          3,        1,   230400, 0x936e6bb1
0,          4,          4,        1,   230400, 0x59759369
1,       8506,       8506,     4096,     8192, 0x00000000
0,          5,          5,        1,   230400, 0x0930b896
0,          6,          6,        1,   230400, 0xc86bd3b6
0,          7,          7,        1,   230400, 0x4cc2e982
1,      12602,      12602,     4096,     8192, 0x00000000
0,          8,          8,        1,   230400, 0x7b75f95f
0,          9,          9,        1,   230400, 0x15c00454
1,      16698,      16698,     4096,     8192, 0x00000000
0,         10,         10,        1,   230400, 0x754f0815
0,         11,         11,        1,   230400, 0x08d505a9
1,      20794,      20794,     4096,     8192, 0x00000000
0,         12,         12,        1,   230400, 0x2f24fdf9
0,         13,         13,        1,   230400, 0x8ecfedfd
0,         14,         14,        1,   230400, 0x1678da5f
1,      24890,      24890,     4096,     8192, 0x00000000
0,         15,         15,        1,   230400, 0x0916c018
0,         16,         16,        1,   230400, 0x503fa09c
1,      28986,      28986,     4096,     8192, 0x00000000
0,         17,         17,        1,   230400, 0xe6f776b6
0,         18,         18,        1,   230400, 0xf5d34ac1
1,      33082,      33082,     4096,     8192, 0x00000000
0,         19,         19,        1,   230400, 0xc6a918fc
0,         20,         20,        1,   230400, 0x28d1e139
0,         21,         21,        1,   230400, 0x6c02a0ae
1,      37178,      37178,     4096,     8192, 0x00000000
0,         22,         22,        1,   230400, 0xe83865b5
0,         23,         23,        1,   230400, 0x85b62adb
1,      41274,      41274,     4096,     8192, 0x00000000
0,         24,         24,        1,   230400, 0xcc7def95
0,         25,         25,        1,   230400, 0xddc9f26f
1,      45370,      45370,     3140,     6280, 0x00000000
0,         26,         26,        1,   230400, 0x6894b947
0,         27,         27,        1,   230400, 0x4311862d
0,         28,         28,        1,   230400, 0x38ba5867
0,         29,         29,        1,   230400, 0x4b5830af
0,         30,         30,        1,   230400, 0x76700b82
0,         31,         31,        1,   230400, 0x9ba9f053
0,         32,         32,        1,   230400, 0x01f2da87
0,         33,         33,        1,   230400, 0xc2f6caaa
0,         34,         34,        1,   230400, 0x1e31bfc4
0,         35,         35,        1,   230400, 0xbad2bc03
0,         36,         36,        1,   230400, 0x296abe6f
0,         37,         37,        1,   230400, 0x0b19c610
0,         38,         38,        1,   230400, 0xbaa1d60c
0,         39,         39,        1,   230400, 0x475fe9aa
0,         40,         40,        1,   230400, 0x6eab0400
0,         41,         41,        1,   230400, 0x475b237c
0,         42,         42,        1,   230400, 0xda1d4d62
0,         43,         43,        1,   230400, 0xf7367957
0,         44,         44,        1,   230400, 0x5891ab1c
0,         45,         45,        1,   230400, 0x2dcfe2d0
0,         46,         46,        1,   230400, 0x2b86236a
0,         47,         47,        1,   230400, 0xea3a5e63
0,         48,         48,        1,   230400, 0x8748993d
0,         49,         49,        1,   230400, 0x7bb8d474
